<svg width="32" height="32" viewBox="0 0 32 32" fill="none" xmlns="http://www.w3.org/2000/svg">
<path d="M15.7772 27.9121C22.4607 27.9121 27.8788 22.494 27.8788 15.8105C27.8788 9.12704 22.4607 3.70898 15.7772 3.70898C9.09371 3.70898 3.67566 9.12704 3.67566 15.8105C3.67566 22.494 9.09371 27.9121 15.7772 27.9121Z" fill="#F2D805"/>
<path d="M18.3469 11.6937C18.3469 11.6937 17.0096 10.5137 14.6627 11.3397C12.4994 12.0871 12.6043 15.0502 15.882 15.8368" stroke="#415123" stroke-width="1.5" stroke-miterlimit="10" stroke-linecap="round" stroke-linejoin="round"/>
<path d="M13.2074 19.9275C13.2074 19.9275 14.5447 21.1075 16.8916 20.2815C19.0681 19.521 18.9632 16.5579 15.6723 15.7712" stroke="#415123" stroke-width="1.5" stroke-miterlimit="10" stroke-linecap="round" stroke-linejoin="round"/>
<path d="M16.0132 11.0512V9.1239" stroke="#415123" stroke-width="1.5" stroke-miterlimit="10" stroke-linecap="round" stroke-linejoin="round"/>
<path d="M16.0132 22.4973V20.5699" stroke="#415123" stroke-width="1.5" stroke-miterlimit="10" stroke-linecap="round" stroke-linejoin="round"/>
</svg>
