<svg width="14" height="15" viewBox="0 0 14 15" fill="none" xmlns="http://www.w3.org/2000/svg">
<path fill-rule="evenodd" clip-rule="evenodd" d="M8.08679 7.9644L13.8223 2.116C14.069 1.84682 14.058 1.4305 13.7974 1.17474C13.5368 0.918976 13.1203 0.915824 12.8558 1.16761L7.12937 7.00698L1.16807 1.15858C0.997403 0.979318 0.742553 0.907404 0.503353 0.971011C0.264152 1.03462 0.0786838 1.22362 0.0196011 1.46398C-0.0394816 1.70433 0.037228 1.95778 0.21968 2.12504L6.17195 7.9644L0.21968 13.8038C-0.0321101 14.0682 -0.028959 14.4847 0.226805 14.7453C0.482569 15.006 0.89889 15.017 1.16807 14.7702L7.12937 8.92182L12.8558 14.7612C13.1203 15.013 13.5368 15.0098 13.7974 14.7541C14.058 14.4983 14.069 14.082 13.8223 13.8128L8.08679 7.9644Z" fill="#C4C4C4"/>
</svg>
