<svg width="32" height="32" viewBox="0 0 32 32" fill="none" xmlns="http://www.w3.org/2000/svg">
<path d="M24.1745 13.994C24.2084 9.0701 20.2442 5.051 15.3203 5.01711C10.3964 4.98322 6.37729 8.94738 6.3434 13.8713C6.30951 18.7952 10.2737 22.8143 15.1976 22.8482C20.1215 22.8821 24.1406 18.9179 24.1745 13.994Z" fill="#F2D805"/>
<path d="M14.0431 22.7593L11.8273 28.3316L9.02157 25.1193L4.78668 25.5127L7.59246 18.4851" fill="#F2D805"/>
<path d="M14.0431 22.7593L11.8273 28.3316L9.02157 25.1193L4.78668 25.5127L7.59246 18.4851" stroke="#F2D805" stroke-width="1.5" stroke-miterlimit="10" stroke-linecap="round" stroke-linejoin="round"/>
<path d="M16.4556 22.7593L18.6845 28.3316L21.4771 25.1193L25.7251 25.5127L22.9062 18.4851" fill="#F2D805"/>
<path d="M16.4556 22.7593L18.6845 28.3316L21.4771 25.1193L25.7251 25.5127L22.9062 18.4851" stroke="#F2D805" stroke-miterlimit="10" stroke-linecap="round" stroke-linejoin="round"/>
<path d="M15.6951 10.1595L16.4686 11.9689C16.5211 12.1262 16.6653 12.218 16.8095 12.2311L18.7762 12.4146C19.1957 12.454 19.3531 12.9653 19.0515 13.2406L17.57 14.5386C17.452 14.6435 17.3995 14.8009 17.4388 14.9451L17.8715 16.8724C17.9633 17.2789 17.5306 17.5935 17.1635 17.3837L15.4722 16.3742C15.3411 16.2955 15.1706 16.2955 15.0395 16.3742L13.3482 17.3837C12.9942 17.5935 12.5484 17.2789 12.6402 16.8724L13.0728 14.9451C13.1122 14.8009 13.0597 14.6435 12.9417 14.5386L11.4602 13.2406C11.1455 12.9653 11.316 12.454 11.7355 12.4146L13.7022 12.2311C13.8595 12.218 13.9906 12.1262 14.0562 11.982L14.8297 10.1726C14.9871 9.7793 15.5246 9.7793 15.6951 10.1595Z" fill="#415123"/>
</svg>
