<svg width="24" height="24" viewBox="0 0 24 24" fill="none" xmlns="http://www.w3.org/2000/svg">
<path d="M8.76793 3.71012L10.8379 2.87012C11.6479 2.54012 12.5779 2.93012 12.9079 3.75012L13.5379 5.29012C13.8679 6.10012 13.4779 7.03012 12.6579 7.37012L10.3679 8.30012C10.6079 9.45012 10.9779 10.8001 11.5579 12.2601C12.2079 13.9101 12.9579 15.2701 13.6379 16.3601L15.9279 15.4301C16.7479 15.1001 17.6779 15.4901 18.0079 16.3101L18.6379 17.8501C18.9679 18.6701 18.5779 19.6001 17.7579 19.9301L15.6879 20.7701L15.6479 20.7901C13.4179 21.6901 10.8479 20.8201 9.68793 18.7201C8.90793 17.3101 8.13793 15.7301 7.42793 13.9601C6.78793 12.3601 6.28793 10.8301 5.90793 9.41012C5.27793 7.08012 6.49793 4.65012 8.72793 3.74012L8.76793 3.71012Z" stroke="white" stroke-width="1.2" stroke-miterlimit="10" stroke-linecap="round" stroke-linejoin="round"/>
</svg>
