<svg width="11" height="10" viewBox="0 0 11 10" fill="none" xmlns="http://www.w3.org/2000/svg">
<path d="M9.86133 2.64062C10.291 2.31836 10.6777 1.93164 10.9785 1.48047C10.5918 1.65234 10.1406 1.78125 9.68945 1.82422C10.1621 1.54492 10.5059 1.11523 10.6777 0.578125C10.248 0.835938 9.75391 1.0293 9.25977 1.13672C8.83008 0.685547 8.25 0.427734 7.60547 0.427734C6.35938 0.427734 5.34961 1.4375 5.34961 2.68359C5.34961 2.85547 5.37109 3.02734 5.41406 3.19922C3.54492 3.0918 1.86914 2.18945 0.751953 0.835938C0.558594 1.1582 0.451172 1.54492 0.451172 1.97461C0.451172 2.74805 0.837891 3.43555 1.46094 3.84375C1.0957 3.82227 0.730469 3.73633 0.429688 3.56445V3.58594C0.429688 4.68164 1.20312 5.58398 2.23438 5.79883C2.0625 5.8418 1.84766 5.88477 1.6543 5.88477C1.50391 5.88477 1.375 5.86328 1.22461 5.8418C1.50391 6.74414 2.3418 7.38867 3.33008 7.41016C2.55664 8.01172 1.58984 8.37695 0.537109 8.37695C0.34375 8.37695 0.171875 8.35547 0 8.33398C0.988281 8.97852 2.16992 9.34375 3.45898 9.34375C7.60547 9.34375 9.86133 5.92773 9.86133 2.94141C9.86133 2.83398 9.86133 2.74805 9.86133 2.64062Z" fill="#415123"/>
</svg>
