<svg width="11" height="10" viewBox="0 0 11 10" fill="none" xmlns="http://www.w3.org/2000/svg">
<path d="M5.8125 2.4043C4.4375 2.4043 3.3418 3.52148 3.3418 4.875C3.3418 6.25 4.4375 7.3457 5.8125 7.3457C7.16602 7.3457 8.2832 6.25 8.2832 4.875C8.2832 3.52148 7.16602 2.4043 5.8125 2.4043ZM5.8125 6.48633C4.93164 6.48633 4.20117 5.77734 4.20117 4.875C4.20117 3.99414 4.91016 3.28516 5.8125 3.28516C6.69336 3.28516 7.40234 3.99414 7.40234 4.875C7.40234 5.77734 6.69336 6.48633 5.8125 6.48633ZM8.94922 2.31836C8.94922 1.99609 8.69141 1.73828 8.36914 1.73828C8.04688 1.73828 7.78906 1.99609 7.78906 2.31836C7.78906 2.64062 8.04688 2.89844 8.36914 2.89844C8.69141 2.89844 8.94922 2.64062 8.94922 2.31836ZM10.582 2.89844C10.5391 2.125 10.3672 1.4375 9.80859 0.878906C9.25 0.320312 8.5625 0.148438 7.78906 0.105469C6.99414 0.0625 4.60938 0.0625 3.81445 0.105469C3.04102 0.148438 2.375 0.320312 1.79492 0.878906C1.23633 1.4375 1.06445 2.125 1.02148 2.89844C0.978516 3.69336 0.978516 6.07812 1.02148 6.87305C1.06445 7.64648 1.23633 8.3125 1.79492 8.89258C2.375 9.45117 3.04102 9.62305 3.81445 9.66602C4.60938 9.70898 6.99414 9.70898 7.78906 9.66602C8.5625 9.62305 9.25 9.45117 9.80859 8.89258C10.3672 8.3125 10.5391 7.64648 10.582 6.87305C10.625 6.07812 10.625 3.69336 10.582 2.89844ZM9.55078 7.71094C9.40039 8.14062 9.05664 8.46289 8.64844 8.63477C8.00391 8.89258 6.5 8.82812 5.8125 8.82812C5.10352 8.82812 3.59961 8.89258 2.97656 8.63477C2.54688 8.46289 2.22461 8.14062 2.05273 7.71094C1.79492 7.08789 1.85938 5.58398 1.85938 4.875C1.85938 4.1875 1.79492 2.68359 2.05273 2.03906C2.22461 1.63086 2.54688 1.30859 2.97656 1.13672C3.59961 0.878906 5.10352 0.943359 5.8125 0.943359C6.5 0.943359 8.00391 0.878906 8.64844 1.13672C9.05664 1.28711 9.37891 1.63086 9.55078 2.03906C9.80859 2.68359 9.74414 4.1875 9.74414 4.875C9.74414 5.58398 9.80859 7.08789 9.55078 7.71094Z" fill="#415123"/>
</svg>
